<svg width="109" height="40" viewBox="0 0 109 40" fill="none" xmlns="http://www.w3.org/2000/svg">
<g clip-path="url(#clip0_286_216)">
<path d="M25.8824 39.4732H1.0545C0.763329 39.4732 0.511509 39.3709 0.306905 39.1663C0.102302 38.9617 0 38.7178 0 38.4187V33.5161C0 33.225 0.0708243 32.9023 0.220342 32.5561C0.36986 32.2019 0.527248 31.9108 0.700374 31.6826L14.1255 16.6599C14.2986 16.4239 14.3616 16.1799 14.2986 15.9123C14.2357 15.6527 14.0468 15.5189 13.732 15.5189H1.0545C0.763329 15.5189 0.511509 15.4166 0.306905 15.212C0.102302 15.0074 0 14.7555 0 14.4644V8.42071C0 8.12954 0.102302 7.87772 0.306905 7.67312C0.511509 7.46851 0.763329 7.36621 1.0545 7.36621H25.8902C26.2129 7.36621 26.4647 7.46851 26.6614 7.67312C26.8503 7.87772 26.9447 8.12954 26.9447 8.42071V13.3784C26.9447 13.6696 26.8818 13.9922 26.748 14.3463C26.6142 14.7005 26.4647 14.9916 26.2837 15.2198L12.8585 30.3133C12.6854 30.5494 12.6225 30.7854 12.6854 31.0373C12.7405 31.2891 12.9215 31.4071 13.2127 31.4071H25.8902C26.2129 31.4071 26.4647 31.5094 26.6614 31.714C26.8503 31.9186 26.9447 32.1705 26.9447 32.4616V38.4266C26.9447 38.7178 26.8503 38.9696 26.6614 39.1742C26.4726 39.3788 26.2129 39.4811 25.8902 39.4811L25.8824 39.4732Z" fill="#14100F"/>
<path d="M31.7683 8.45269C31.7683 8.16152 31.8706 7.9097 32.0752 7.7051C32.2798 7.5005 32.5238 7.39819 32.8149 7.39819H39.4095C39.7006 7.39819 39.9446 7.5005 40.1492 7.7051C40.3538 7.9097 40.4561 8.16152 40.4561 8.45269V26.2217C40.4561 27.3628 40.6371 28.3071 41.0069 29.0547C41.3768 29.8023 41.8254 30.3846 42.3762 30.8096C42.9192 31.2345 43.5015 31.5335 44.1153 31.7067C44.7292 31.8798 45.2879 31.9664 45.7915 31.9664C46.2952 31.9664 46.846 31.8798 47.4677 31.7067C48.0815 31.5335 48.656 31.2345 49.1832 30.8096C49.7105 30.3846 50.159 29.8023 50.5289 29.0547C50.8987 28.3071 51.0797 27.3628 51.0797 26.2217V8.45269C51.0797 8.16152 51.182 7.9097 51.3866 7.7051C51.5913 7.5005 51.8352 7.39819 52.1264 7.39819H58.7209C59.0121 7.39819 59.256 7.5005 59.4606 7.7051C59.6652 7.9097 59.7675 8.16152 59.7675 8.45269V26.2217C59.7675 28.2992 59.437 30.1879 58.7838 31.8798C58.1307 33.5796 57.1864 35.0275 55.9587 36.2237C54.7311 37.4198 53.2596 38.3484 51.5362 39.0094C49.8128 39.6705 47.9005 39.9931 45.7994 39.9931C43.6983 39.9931 41.786 39.6626 40.0626 39.0094C38.3392 38.3484 36.8677 37.4198 35.64 36.2237C34.4124 35.0275 33.4681 33.5796 32.7913 31.8798C32.1224 30.18 31.784 28.2992 31.784 26.2217V8.45269H31.7683Z" fill="#14100F"/>
<path d="M79.8661 30.8249H76.0416C75.7504 30.8249 75.4986 30.9272 75.294 31.1318C75.0894 31.3364 74.9871 31.5882 74.9871 31.8794V38.4189C74.9871 38.71 74.8848 38.9618 74.6802 39.1664C74.4756 39.371 74.2316 39.4733 73.9405 39.4733H67.3459C67.0548 39.4733 66.8108 39.371 66.6062 39.1664C66.4016 38.9618 66.2993 38.71 66.2993 38.4189V8.40508C66.2993 8.11391 66.4016 7.86209 66.6062 7.65749C66.8108 7.45289 67.0626 7.35059 67.3538 7.35059H80.779C82.4158 7.35059 83.9582 7.65749 85.4061 8.2713C86.8541 8.88511 88.1132 9.735 89.1756 10.8131C90.2458 11.8991 91.0878 13.1503 91.7174 14.5825C92.3469 16.0148 92.6617 17.5493 92.6617 19.1861C92.6617 20.8229 92.3941 22.3496 91.8669 23.774C91.3396 25.1904 90.537 26.4181 89.4667 27.4568C88.3965 28.4956 87.0587 29.314 85.4612 29.9121C83.8637 30.5101 81.9908 30.8092 79.8504 30.8092L79.8661 30.8249ZM80.1888 15.4246H76.0416C75.7426 15.4246 75.4986 15.5269 75.294 15.7315C75.0894 15.9361 74.9871 16.18 74.9871 16.4712V21.6178C74.9871 21.9089 75.0894 22.1529 75.294 22.3575C75.4986 22.5621 75.7504 22.6644 76.0416 22.6644H80.7553C81.8728 22.6644 82.6912 22.3103 83.2027 21.5941C83.7142 20.8859 83.9739 20.0754 83.9739 19.1704C83.9739 18.7061 83.8952 18.2497 83.73 17.7932C83.5647 17.3447 83.3286 16.9433 83.006 16.5971C82.6833 16.2508 82.282 15.9675 81.8177 15.7472C81.3455 15.5269 80.8026 15.4167 80.1888 15.4167V15.4246Z" fill="#14100F"/>
<path d="M102.042 12.1424C101.208 12.1424 100.429 11.985 99.6892 11.6623C98.9495 11.3397 98.3121 10.9069 97.7612 10.356C97.2103 9.80518 96.7775 9.15989 96.4549 8.42804C96.1322 7.68832 95.9749 6.90925 95.9749 6.0751C95.9749 5.24094 96.1322 4.46187 96.4549 3.72215C96.7775 2.98243 97.2103 2.34502 97.7612 1.79416C98.3121 1.2433 98.9573 0.810488 99.6892 0.487844C100.429 0.1652 101.208 0.0078125 102.042 0.0078125C102.876 0.0078125 103.647 0.1652 104.371 0.487844C105.095 0.810488 105.733 1.2433 106.284 1.79416C106.835 2.34502 107.26 2.9903 107.574 3.72215C107.881 4.46187 108.039 5.24094 108.039 6.0751C108.039 6.90925 107.881 7.68832 107.574 8.42804C107.267 9.16776 106.835 9.81305 106.284 10.356C105.733 10.9069 105.095 11.3397 104.371 11.6623C103.647 11.985 102.868 12.1424 102.042 12.1424ZM99.8702 6.06723C99.8702 6.68104 100.083 7.20828 100.515 7.63323C100.94 8.06605 101.468 8.27852 102.081 8.27852C102.695 8.27852 103.223 8.06605 103.647 7.63323C104.072 7.20828 104.293 6.68104 104.293 6.06723C104.293 5.45342 104.08 4.92617 103.647 4.50122C103.215 4.07628 102.695 3.85593 102.081 3.85593C101.468 3.85593 100.94 4.06841 100.515 4.50122C100.083 4.93404 99.8702 5.45342 99.8702 6.06723Z" fill="#14100F"/>
</g>
<defs>
<clipPath id="clip0_286_216">
<rect width="108.039" height="40" fill="white"/>
</clipPath>
</defs>
</svg>
